<svg width="600" height="120" viewBox="0 0 600 120" fill="none" xmlns="http://www.w3.org/2000/svg">
<g clip-path="url(#clip0_5404_4586)">
<rect width="600" height="120" fill="#F6F7FB"/>
<g clip-path="url(#clip1_5404_4586)">
<path d="M161.415 206.36L388.166 -20.8214C391.009 -23.6699 395.626 -23.6699 398.469 -20.8214C401.312 -17.9729 401.312 -13.3477 398.469 -10.4991L171.718 216.682C170.533 217.87 168.605 217.87 167.42 216.682L161.42 210.671C160.235 209.483 160.235 207.552 161.42 206.364L161.415 206.36Z" fill="url(#paint0_linear_5404_4586)"/>
<path d="M196.933 211.9L439.644 -31.2714C449.68 -41.3265 466.106 -41.2045 476.303 -30.9885C486.495 -20.7773 486.626 -4.31988 476.585 5.73997L233.874 248.912C229.684 253.11 222.827 253.057 218.572 248.794L197.056 227.237C192.801 222.973 192.748 216.103 196.938 211.905L196.933 211.9Z" fill="url(#paint1_linear_5404_4586)"/>
<path d="M300.557 190.202L547.036 -56.7451C557.228 -66.9564 573.781 -66.9612 583.978 -56.7451C594.169 -46.5339 594.174 -29.9498 583.978 -19.7338L337.499 227.213C333.244 231.476 326.333 231.476 322.078 227.213L300.562 205.656C296.307 201.393 296.307 194.47 300.562 190.207L300.557 190.202Z" fill="url(#paint2_linear_5404_4586)"/>
<path d="M510.244 149.351L568.069 93.4566C570.912 90.6081 575.529 90.6081 578.372 93.4566C581.215 96.3051 581.215 100.93 578.372 103.779L520.547 159.673C519.361 160.861 517.434 160.861 516.248 159.673L510.249 153.663C509.063 152.475 509.063 150.544 510.249 149.356L510.244 149.351Z" fill="url(#paint3_linear_5404_4586)"/>
<path d="M169.655 162.377L319.508 12.2407C322.349 9.39349 326.963 9.39349 329.805 12.2407C332.647 15.0879 332.647 19.7103 329.805 22.5575L179.953 172.694" fill="url(#paint4_linear_5404_4586)"/>
<path d="M307.509 235.82L513.78 29.1576C523.971 18.9464 540.524 18.9416 550.721 29.1576C560.913 39.3688 560.918 55.953 550.721 66.169L344.45 272.831C340.195 277.094 333.285 277.094 329.03 272.831L307.514 251.274C303.259 247.011 303.259 240.088 307.514 235.825L307.509 235.82Z" fill="url(#paint5_linear_5404_4586)"/>
<path d="M180.587 199.95L326.887 53.3723C337.079 43.1611 353.631 43.1563 363.828 53.3723C374.02 63.5835 374.025 80.1677 363.828 90.3837L217.528 236.961C213.273 241.225 206.363 241.225 202.108 236.961L180.591 215.404C176.336 211.141 176.336 204.218 180.591 199.955L180.587 199.95Z" fill="url(#paint6_linear_5404_4586)"/>
<path d="M256.038 210.617L442.588 23.7128C452.793 13.4887 469.722 13.8504 480.371 24.5203C491.021 35.1902 491.382 52.1512 481.177 62.3754L294.628 249.279C290.112 253.804 282.619 253.644 277.906 248.922L256.39 227.365C251.677 222.643 251.517 215.136 256.033 210.612L256.038 210.617Z" fill="url(#paint7_linear_5404_4586)"/>
<path d="M237.97 293.845L464.721 66.664C467.564 63.8155 472.18 63.8155 475.023 66.664C477.867 69.5125 477.867 74.1377 475.023 76.9862L248.273 304.167C247.087 305.355 245.16 305.355 243.974 304.167L237.975 298.156C236.789 296.969 236.789 295.038 237.975 293.85L237.97 293.845Z" fill="url(#paint8_linear_5404_4586)"/>
</g>
<path d="M36 75.7619H40.0934V79.7935H44.6589V83.6562H40.0934V90.4083C40.0934 92.1555 40.9426 92.7266 42.1401 92.7266H44.6589V96.5893H42.1401C37.9517 96.5893 36 94.6426 36 90.4083V75.7619Z" fill="#FF5F02"/>
<path d="M54.452 96.9885C49.4144 96.9885 46.0435 93.4605 46.0435 88.2221C46.0435 82.9838 49.3511 79.3882 54.2304 79.3882C59.1096 79.3882 62.2905 82.8149 62.2905 88.0532C62.2905 88.5568 62.2589 89.0942 62.1639 89.7328H50.3269C50.704 92.0849 52.0599 93.1933 54.5153 93.1933C56.0583 93.1933 57.1925 92.4871 57.6329 91.5475H61.853C60.9088 94.8054 58.2633 96.9885 54.452 96.9885ZM50.3903 86.1741H58.01C57.6012 84.0585 56.4037 83.0513 54.2304 83.0513C52.1837 83.0513 50.8624 84.126 50.3903 86.1741Z" fill="#FF5F02"/>
<path d="M64.5589 79.7904H68.494V81.8047C69.9419 80.2602 71.6749 79.4864 73.3128 79.7904V83.822C71.2661 83.5549 69.9448 84.562 68.6523 86.3399V96.5832H64.5589V79.7904Z" fill="#FF5F02"/>
<path d="M78.4108 96.7859C75.5149 96.7859 73.2149 94.9712 73.2149 91.2098C73.2149 88.1208 75.04 86.0052 79.1334 86.0052H82.6914V85.5016C82.6914 83.9571 81.7788 83.3185 79.5105 83.3185C77.9992 83.3185 76.8017 83.4874 75.1638 83.9909V80.0606C76.4246 79.6922 77.9992 79.4557 79.8559 79.4557C84.5798 79.4557 86.7819 81.3687 86.7819 85.5016V96.5863H82.7835V95.6129L81.871 96.0152C80.7051 96.5187 79.5105 96.7889 78.408 96.7889L78.4108 96.7859ZM80.6475 92.8556L82.6942 91.916V89.4319H79.5767C78.1604 89.4319 77.3083 90.1381 77.3083 91.2466C77.3083 92.5577 78.1575 93.1933 79.2284 93.1933C79.6688 93.1933 80.1726 93.0582 80.6447 92.8586L80.6475 92.8556Z" fill="#FF5F02"/>
<path d="M101.27 96.5863V95.4778L101.051 95.5791C99.6033 96.3191 98.0604 96.6876 96.5808 96.6876C92.6457 96.6876 89.1798 93.9671 89.1798 88.1914C89.1798 82.4157 92.6428 79.6615 96.6124 79.6615C98.0604 79.6615 99.6033 80.0299 101.051 80.7699L101.178 80.8375V73.4099H105.271V96.5863H101.27ZM97.335 92.656C98.2158 92.656 99.1917 92.4195 100.199 91.916L101.175 91.4124V84.9643L100.199 84.4607C99.1917 83.9571 98.2158 83.7207 97.335 83.7207C95.0666 83.7207 93.3682 85.2314 93.3682 88.1883C93.3682 91.1453 95.0695 92.656 97.335 92.656Z" fill="#FF5F02"/>
<path d="M112.669 96.7859C109.774 96.7859 107.473 94.9712 107.473 91.2098C107.473 88.1208 109.299 86.0052 113.392 86.0052H116.95V85.5016C116.95 83.9571 116.037 83.3185 113.769 83.3185C112.258 83.3185 111.06 83.4874 109.422 83.9909V80.0606C110.683 79.6922 112.258 79.4557 114.114 79.4557C118.838 79.4557 121.04 81.3687 121.04 85.5016V96.5863H117.042V95.6129L116.13 96.0152C114.964 96.5187 113.769 96.7889 112.667 96.7889L112.669 96.7859ZM114.906 92.8556L116.953 91.916V89.4319H113.835C112.419 89.4319 111.567 90.1381 111.567 91.2466C111.567 92.5577 112.416 93.1933 113.487 93.1933C113.927 93.1933 114.431 93.0582 114.903 92.8586L114.906 92.8556Z" fill="#FF5F02"/>
<path d="M124.066 75.7619H128.159V79.7935H132.725V83.6562H128.159V90.4083C128.159 92.1555 129.009 92.7266 130.206 92.7266H132.725V96.5893H130.206C126.018 96.5893 124.066 94.6426 124.066 90.4083V75.7619Z" fill="#FF5F02"/>
<path d="M139.337 96.7859C136.441 96.7859 134.141 94.9712 134.141 91.2098C134.141 88.1208 135.966 86.0052 140.06 86.0052H143.618V85.5016C143.618 83.9571 142.705 83.3185 140.437 83.3185C138.925 83.3185 137.728 83.4874 136.09 83.9909V80.0606C137.351 79.6922 138.925 79.4557 140.782 79.4557C145.506 79.4557 147.708 81.3687 147.708 85.5016V96.5863H143.71V95.6129L142.797 96.0152C141.631 96.5187 140.437 96.7889 139.334 96.7889L139.337 96.7859ZM141.574 92.8556L143.62 91.916V89.4319H140.503C139.087 89.4319 138.235 90.1381 138.235 91.2466C138.235 92.5577 139.084 93.1933 140.155 93.1933C140.595 93.1933 141.099 93.0582 141.571 92.8586L141.574 92.8556Z" fill="#FF5F02"/>
<path d="M150.074 94.6703C150.074 93.3929 151.019 92.3858 152.248 92.3858C153.477 92.3858 154.421 93.3929 154.421 94.6703C154.421 95.9476 153.445 96.9885 152.248 96.9885C151.05 96.9885 150.074 95.9476 150.074 94.6703Z" fill="#FF5F02"/>
</g>
<defs>
<linearGradient id="paint0_linear_5404_4586" x1="252.393" y1="172.179" x2="367.215" y2="1.02858" gradientUnits="userSpaceOnUse">
<stop stop-color="#3053F4" stop-opacity="0.6"/>
<stop offset="1" stop-color="#3053F4"/>
</linearGradient>
<linearGradient id="paint1_linear_5404_4586" x1="246.757" y1="200.386" x2="476.733" y2="-30.5485" gradientUnits="userSpaceOnUse">
<stop stop-color="#FF5F02" stop-opacity="0.6"/>
<stop offset="0.97" stop-color="#FF5F02"/>
</linearGradient>
<linearGradient id="paint2_linear_5404_4586" x1="327.687" y1="217.883" x2="550.151" y2="-21.7332" gradientUnits="userSpaceOnUse">
<stop stop-color="#FF5F02" stop-opacity="0.4"/>
<stop offset="1" stop-color="#FF5F02"/>
</linearGradient>
<linearGradient id="paint3_linear_5404_4586" x1="497.748" y1="178.515" x2="575.391" y2="97.5854" gradientUnits="userSpaceOnUse">
<stop stop-color="#00233C" stop-opacity="0.4"/>
<stop offset="1" stop-color="#00233C"/>
</linearGradient>
<linearGradient id="paint4_linear_5404_4586" x1="174.801" y1="167.54" x2="330.098" y2="12.5377" gradientUnits="userSpaceOnUse">
<stop stop-color="#00233C" stop-opacity="0.5"/>
<stop offset="1" stop-color="#00233C"/>
</linearGradient>
<linearGradient id="paint5_linear_5404_4586" x1="350.106" y1="234.833" x2="551.105" y2="29.5409" gradientUnits="userSpaceOnUse">
<stop stop-color="#FF5F02" stop-opacity="0.5"/>
<stop offset="0.891396" stop-color="#FF5F02"/>
</linearGradient>
<linearGradient id="paint6_linear_5404_4586" x1="246.21" y1="169.766" x2="364.048" y2="53.5934" gradientUnits="userSpaceOnUse">
<stop stop-color="#FF5F02" stop-opacity="0.73"/>
<stop offset="0.869008" stop-color="#FF5F02"/>
</linearGradient>
<linearGradient id="paint7_linear_5404_4586" x1="267.155" y1="238.145" x2="480.778" y2="24.9268" gradientUnits="userSpaceOnUse">
<stop stop-color="#00233C" stop-opacity="0.72"/>
<stop offset="0.907955" stop-color="#00233C"/>
</linearGradient>
<linearGradient id="paint8_linear_5404_4586" x1="352.84" y1="191.637" x2="466.571" y2="73.5244" gradientUnits="userSpaceOnUse">
<stop stop-color="#3053F4" stop-opacity="0.5"/>
<stop offset="0.897167" stop-color="#3053F4"/>
</linearGradient>
<clipPath id="clip0_5404_4586">
<rect width="600" height="120" fill="white"/>
</clipPath>
<clipPath id="clip1_5404_4586">
<rect width="473" height="374" fill="white" transform="translate(162 -108)"/>
</clipPath>
</defs>
</svg>
